<svg xmlns="http://www.w3.org/2000/svg" height="800" width="1200" viewBox="-89.7585 -40.03975 777.907 240.2385"><g fill="#23aa4a"><path d="M77.99.83c.72-.35 1.47-.62 2.24-.83l.4.78c1.73 3.63 4.13 6.88 6.15 10.35 11.92 20.44 18.6 44.12 17.93 67.84.14 9.01-1.84 17.84-2.78 26.75l-.46.04c-5.7-12.65-13.03-24.6-21.77-35.38-11.1-14.46-25.06-26.54-40.28-36.5C50.53 21.03 63.48 9.71 77.99.83z"/><path d="M63.82 76.52c4.72-1.99 9.24-4.74 14.45-5.2-7.91 10.7-15.48 21.86-20.61 34.19-7.71 16.12-12.14 33.72-13.87 51.48-15.26-3.02-29.94-8.48-43.79-15.51 12.43-28.47 35.92-51.59 63.82-64.96z"/></g><path d="M80.63.78c33.64 20.35 59.15 53.43 71.18 90.8-15.74 7.33-32.62 12.2-49.88 14.14.94-8.91 2.92-17.74 2.78-26.75.67-23.72-6.01-47.4-17.93-67.84-2.02-3.47-4.42-6.72-6.15-10.35z" fill="#60bb46"/><path d="M192.41 34.4c10.76-6.81 24.27-7.76 36.53-5.47 10.79 2.2 18.66 10.51 25.96 18.14-5.69 5.54-11.13 11.31-16.8 16.86-4.68-5.86-10.39-11.66-17.93-13.47-5.01-.69-10.9-.89-14.87 2.8-2.84 2.46-5.32 6.42-3.7 10.25 1.44 2.71 4.12 4.44 6.47 6.29 12.31 8.3 26.3 14.54 36.49 25.63 4.95 5.18 8.17 12.25 7.73 19.51-.4 10.55-6.77 20.24-15.48 25.91-6.36 4.28-14.25 5.57-21.78 5.6-8.76.18-17.77-1.54-25.27-6.23-5.94-3.43-10.84-8.24-15.84-12.86 4.76-5.71 10.34-10.72 15.36-16.21l.64-.09c7.71 5.25 15.64 11.08 25.13 12.4 5.3.86 11.05-1.88 13.28-6.84.93-1.95.06-4.12-1.18-5.69-4.74-6.47-11.94-10.38-18.52-14.69-7.73-5.15-16.41-9.2-22.63-16.31-6.83-6.91-10.02-17.43-7.48-26.9 1.95-7.73 7.29-14.32 13.89-18.63zm63.38 25.72c7.43.02 14.85 0 22.28.01.05.57.14 1.71.19 2.27 12.25-4.81 27.3-2.16 36.71 7.22 6.77-6.75 16.5-10.17 26.01-9.45 11.95.25 22.92 7.81 28.83 17.97 3.16 5.36 4.2 11.63 4.43 17.77.05 16.82-.07 33.65.06 50.48-7.49.13-14.99.03-22.49.05 0-17.18.05-34.36-.02-51.54.02-5.04-3.49-9.68-8.09-11.53-7.71-3.54-18 2.96-17.49 11.57-.01 17.16-.06 34.31.03 51.46-7.51.1-15.01.05-22.52.03.08-17.15.03-34.3.03-51.45.23-5.39-3.88-10.24-8.83-11.92-7.67-2.84-17.11 3.63-16.77 11.88 0 17.17-.03 34.33.02 51.49-7.5.02-15.01.07-22.51-.03.18-28.76-.08-57.52.13-86.28z" fill="#0b9445"/><path d="M547.69 28.6c7.49-.1 14.99-.07 22.48-.02-.05 10.65 0 21.29-.03 31.94 9.41-.07 18.83-.05 28.25-.02-1.98 6.21-5.15 12.39-10.69 16.13-5.09 3.64-11.28 5.7-17.52 6.01-.03 9.1-.09 18.21.01 27.31.01 4.09 1.02 8.7 4.77 10.99 5.67 3.32 12.54 3.31 18.92 3.26.43 7.36-.5 14.76.01 22.14-10.67.35-22.02-.17-31.45-5.71-7.95-4.74-12.32-13.69-13.65-22.59-1.79-11.66-.85-23.5-1-35.24-3.73-.11-7.46-.11-11.18.03-.23-7.45-.01-14.9-.12-22.35 3.76 0 7.52 0 11.29.01-.12-10.63.04-21.26-.09-31.89z" fill="#0c9446"/><path d="M7.64 90.04c6.79-20.56 17.7-39.72 31.78-56.16 15.22 9.96 29.18 22.04 40.28 36.5-1.79.21-3.57-.11-5.35-.23l.56 1.2c-6.03 1.21-11.69 3.72-17.33 6.12-20.08 8.74-38.17 22.19-51.78 39.4-1.81 2.27-3.37 4.74-5.33 6.9 1.52-11.4 3.57-22.78 7.17-33.73z" fill="#8cc63f"/><path d="M503.25 77.21c4.69-11.27 17.4-18.43 29.5-16.77.09 7.28-.15 14.56.13 21.83-11.81-1.16-24.2 6.38-27.69 17.9-2.65 6.98-1.95 14.52-2.02 21.81.03 8.13-.06 16.27.06 24.4-7.87.13-15.74.08-23.6.03.09-28.61.09-57.23 0-85.84 7.41-.15 14.82.01 22.23-.09-.05 6.55.39 13.13-.39 19.66.92-.74 1.3-1.89 1.78-2.93zm-124.8 18.64c3.4-19.9 22.34-35.65 42.54-35.31 10.2-.1 20.19 3.84 28.02 10.29.08-3.42.08-6.83.04-10.25 7.73-.01 15.47-.09 23.21.05-.05 28.58-.09 57.16.02 85.74-7.76.15-15.51.08-23.27.04l.12-9.35c-6.32 4.48-13.31 8.36-21.09 9.45-14.67 2.6-30.43-3.23-39.98-14.63-8.36-9.76-12.25-23.39-9.61-36.03m38.01-13.22c-5.74 1.27-11.03 4.81-14.03 9.91-4.34 6.8-4.28 16.08.14 22.82 4 6.52 11.69 10.6 19.35 10.06 11.46-.18 21.46-11 20.59-22.47-.07-12.92-13.53-23.25-26.05-20.32z" fill="#0b9444"/><path d="M101.93 105.72c17.26-1.94 34.14-6.81 49.88-14.14 4.72 15.14 7.14 30.96 7.11 46.82-34.24.53-68.31-10.52-96.36-30.02-1.26-.92-2.36-2.03-3.47-3.11 14.05 1.49 28.3 2.12 42.38.49l.46-.04z" fill="#66bce1"/><path d="M43.79 156.99c1.73-17.76 6.16-35.36 13.87-51.48l.82-.84.61.6c1.11 1.08 2.21 2.19 3.47 3.11 28.05 19.5 62.12 30.55 96.36 30.02-20.75 12.71-44.75 19.79-68.96 21.54-15.44.49-31.01.41-46.17-2.95z" fill="#1595d0"/></svg>